<svg xmlns="http://www.w3.org/2000/svg" xmlns:xlink="http://www.w3.org/1999/xlink" viewBox="0 0 201.89 182.65"><path d="M146.44,17.41a3.5,3.5,0,0,0-.78,1.15,4.29,4.29,0,0,0-.29,1.71c0,3.13,2.64,7.2,4,9.39l.06.09a131.05,131.05,0,0,1,10,18.72A115.4,115.4,0,0,1,166.37,70l.84,3.91c2.67,12.54,5.44,25.51,10.2,37.63,4.5,11.43,8.4,15.59,10.88,17.06a6.23,6.23,0,0,0,1.58.68l.22.06a4.34,4.34,0,0,0,2.49-.25,8.37,8.37,0,0,0,2.76-1.93l.24-.24.39-.44.25-.27c16.14-18.74-5.55-65.23-23-90.14A75.19,75.19,0,0,0,166,27.41c-1.3-1.34-2.57-2.58-3.78-3.66-3.53-3.18-8.58-7-12.55-7.38a3.85,3.85,0,0,0-.48,0,4.11,4.11,0,0,0-1.57.28A3.43,3.43,0,0,0,146.44,17.41ZM11.68,128.56l.17,0a5.85,5.85,0,0,0,1.82-.76l.1-.06a9,9,0,0,0,.8-.56,8.85,8.85,0,0,0,.82-.71c3.06-2.82,6.12-8.1,9.11-15.7C29.27,98.62,32,85.66,34.7,73.13l.84-3.92c.59-2.76,1.31-5.56,2.13-8.34.75-2.53,1.65-5.19,2.66-7.9.73-1.93,1.42-3.65,2.11-5.25A132.07,132.07,0,0,1,52.45,29l.06-.09c.42-.66.91-1.44,1.42-2.29s1-1.72,1.33-2.48c.19-.43.38-.85.54-1.29,1.1-2.87,1-4.88-.33-6.19h0a3.11,3.11,0,0,0-.33-.29,3.74,3.74,0,0,0-2.39-.76,4.18,4.18,0,0,0-.5,0c-2.77.24-6.56,2.31-11,6-1.18,1-2.41,2.1-3.65,3.31a78.66,78.66,0,0,0-8.94,10.36C10.86,60.75-11,107.93,6.34,126.13l.25.26a7.18,7.18,0,0,0,3.65,2.16,4.74,4.74,0,0,0,.75.06,4.53,4.53,0,0,0,.52,0ZM96.89,68.26a4.4,4.4,0,0,0-1.11,2.94,2.08,2.08,0,0,0,0,.23c0,.1,0,.2,0,.31A7.94,7.94,0,0,0,99,77.41c.2.15.4.29.61.42a8.25,8.25,0,0,0,2,.88,7.81,7.81,0,0,0,2.21.31h0a8,8,0,0,0,4.85-1.61c.19-.14.38-.3.56-.46a7.51,7.51,0,0,0,1.31-1.5c.14-.2.27-.42.4-.64l.1-.17.05-.12a5.17,5.17,0,0,0,.28-.64,7.61,7.61,0,0,0,.51-2.14c0-.11,0-.21,0-.31a2.08,2.08,0,0,0,0-.23,4.85,4.85,0,0,0-3-4.36,6.81,6.81,0,0,0-.74-.31l-.28-.12a8.68,8.68,0,0,0-1.14-.3,13.49,13.49,0,0,0-2.93-.24,11.84,11.84,0,0,0-4.06.54l-.28.12A6.12,6.12,0,0,0,96.89,68.26ZM84.83,1.69l-1.53.38c-1.37.34-2.73.71-4,1.14l-.35.11-1.65.57L77,4c-1.62.6-3.27,1.28-4.89,2l-.39.18-1.4.67-.49.25c-1.31.65-2.67,1.38-4.13,2.2L65,9.73l-1,.6-1.85,1.09-1.87,1.14-.09,0-1.52.94h0l-.17.1-.23.15.07.07h0a6.24,6.24,0,0,1,.63.71,7,7,0,0,1,1.06,1.88,7.78,7.78,0,0,1,.35,1.18,9.42,9.42,0,0,1,.12,2.74,11.87,11.87,0,0,1-.28,1.65c.05-.21.09-.41.13-.62,0,.21-.08.41-.13.62s0,.17,0,.26a18.83,18.83,0,0,1-.62,2c-.12.3-.26.6-.39.9s-.17.43-.27.65c-.21.43-.43.87-.68,1.34.13-.23.23-.45.34-.67-.11.22-.21.44-.34.67-.25.46-.52,1-.82,1.46l-.39.64c-.18.3-.35.58-.53.86l-.45.72h0v0l-.12.2,0,0,0,.05h0a.68.68,0,0,0-.12.37.72.72,0,0,0,1.33.37h0a49.94,49.94,0,0,1,8.82-8.58C82.45,11,111.7,0,141.85,14.16l.64.38a3.77,3.77,0,0,0,.9.43c.1-.11.18-.23.28-.33a7,7,0,0,1,1.12-.92l-.1-.07-1.13-.71h0l-.09,0-1.77-1.11-.94-.59-1.37-.83-1-.63L137.08,9c-.37-.22-.75-.43-1.13-.64l-1.18-.66-1.23-.64c-.37-.2-.75-.39-1.13-.58l-1.34-.64L130,5.33c-.53-.24-1.06-.46-1.6-.68l-.9-.37c-.85-.34-1.72-.66-2.62-1C118.13,1.06,110.71,0,101.53,0A76.32,76.32,0,0,0,85,1.66ZM189,134.15c-.11.29-.25.55-.36.83-.24.52-.48,1-.73,1.55-.5,1-1,2-1.56,3s-1.09,2-1.68,2.91-1.18,1.88-1.8,2.8-1.27,1.82-1.93,2.71-1.34,1.75-2,2.6-1.41,1.68-2.15,2.5-1.5,1.61-2.27,2.39l-.42.42a3.87,3.87,0,0,1-.41.4c-12.21,9.15-30.67,12.51-47.67,13C76.61,170.73,33,121.44,39.19,74a.33.33,0,0,0-.66,0h0c-2.7,12.69-5.5,25.81-10.38,38.23-.92,2.32-1.84,4.44-2.76,6.34-.31.64-.62,1.26-.93,1.85h0l-.3.56c-.23.41-.45.81-.68,1.2a37.45,37.45,0,0,1-2,3.22,24.58,24.58,0,0,1-3.38,4c-.32.3-.65.58-1,.83a.87.87,0,0,1-.11.09,12.5,12.5,0,0,1-1.11.78l-.08.06-.08,0-.06,0h0a10,10,0,0,1-3,1.21l-.26,0-.2,0H12a5.09,5.09,0,0,1-.55,0l.1.29c.11.28.21.56.33.84l.07.11c13,31.08,46.12,48.91,91,48.91,1.42,0,2.83,0,4.23-.07l.82,0q2-.06,4-.18l.84,0c1.28-.08,2.55-.18,3.81-.29l.34,0c1.29-.12,2.56-.27,3.83-.42l1-.12c1.21-.16,2.41-.33,3.59-.52l1.08-.18c1-.16,2-.34,3-.53l1.14-.22,3-.65,1.35-.32c1-.25,2-.51,3-.78l1.14-.32.3-.08,2.06-.62c.71-.22,1.41-.44,2.11-.68s1.32-.44,2-.67l1.67-.61c.68-.25,1.35-.52,2-.79s1.48-.6,2.2-.92l1.23-.54c1-.45,2-.91,3-1.4l.25-.12.71-.35,1.86-1,.47-.26c1.19-.66,2.34-1.32,3.42-2l.63-.4c1.18-.74,2.33-1.5,3.4-2.26l.24-.17c1.82-1.28,3.6-2.67,5.3-4.13l.36-.31c1.13-1,2.22-2,3.23-3a.93.93,0,0,0,.14-.14c.48-.47,1-.95,1.41-1.43l.06-.07a69.91,69.91,0,0,0,5.58-6.67c.31-.38.62-.8.93-1.24.64-.9,1.3-1.89,2-3,.45-.75.91-1.57,1.37-2.43.3-.55.6-1.16.91-1.76l.39-.76v0l0,0c.21-.43.43-.87.64-1.31l0-.09c.62-1.3,1.24-2.66,1.87-4.11a1.58,1.58,0,0,0,.08-.37,1,1,0,0,0-1-1,1,1,0,0,0-.69.3A2,2,0,0,0,189,134.15ZM131.32,59.29a73.24,73.24,0,0,0,17.38,3.8,32,32,0,0,0,3.52.23,6.45,6.45,0,0,0,3.63-.73,1.68,1.68,0,0,0,.7-1.06,1,1,0,0,0,0-.16c.25-2.48-6.07-8.82-15.35-10.87a33.84,33.84,0,0,0-13.41-.3,15.23,15.23,0,0,0-5.59,2,1.45,1.45,0,0,0-.71,1,1.6,1.6,0,0,0,.6,1.2,14.46,14.46,0,0,0,4.7,3.08C128.28,58.13,129.79,58.73,131.32,59.29Zm-9.23-5.23s0,0,0,0M80.9,57.48a14.57,14.57,0,0,0,4.7-3.08,1.56,1.56,0,0,0,.59-1.2,1.39,1.39,0,0,0-.71-1,15.18,15.18,0,0,0-5.58-2,33.83,33.83,0,0,0-13.41.3c-9.28,2-15.6,8.39-15.35,10.87a1,1,0,0,0,0,.16,1.6,1.6,0,0,0,.7,1.06,6.44,6.44,0,0,0,3.62.73A32,32,0,0,0,59,63.09a73.35,73.35,0,0,0,17.38-3.8Q78.69,58.45,80.9,57.48ZM85.63,54s0,0,0,0" fill="#F4A000"/></svg>